HIERARCHY
ROOT Hips
{
  OFFSET 1.73907 43.2358 0.0522707
  CHANNELS 6 Xposition Yposition Zposition Zrotation Xrotation Yrotation
  JOINT Bip01_Pelvis
  {
    OFFSET 0 0 0
    CHANNELS 6 Xposition Yposition Zposition Zrotation Xrotation Yrotation
    JOINT BN_Tail_01
    {
      OFFSET -2.28979 -2.39917 0
      CHANNELS 6 Xposition Yposition Zposition Zrotation Xrotation Yrotation
      JOINT BN_Tail_02
      {
        OFFSET 9.67405 0 0
        CHANNELS 6 Xposition Yposition Zposition Zrotation Xrotation Yrotation
        JOINT BN_Tail_03
        {
          OFFSET 10.5192 0 -1.14441e-005
          CHANNELS 6 Xposition Yposition Zposition Zrotation Xrotation Yrotation
          JOINT BN_Tail_04
          {
            OFFSET 8.16754 0 0
            CHANNELS 6 Xposition Yposition Zposition Zrotation Xrotation Yrotation
            End Site
            {
              OFFSET 0 0 0
            }
          }
        }
      }
    }
    JOINT Bip01_Spine
    {
      OFFSET 2.25317 -0.00479889 0
      CHANNELS 6 Xposition Yposition Zposition Zrotation Xrotation Yrotation
      JOINT Bip01_R_Thigh
      {
        OFFSET -2.32652 -0.461891 -2.25534
        CHANNELS 6 Xposition Yposition Zposition Zrotation Xrotation Yrotation
        JOINT Bip01_R_Calf
        {
          OFFSET 9.47902 0 0
          CHANNELS 6 Xposition Yposition Zposition Zrotation Xrotation Yrotation
          JOINT Bip01_R_Foot
          {
            OFFSET 8.42616 0 0
            CHANNELS 6 Xposition Yposition Zposition Zrotation Xrotation Yrotation
            JOINT Bip01_R_Toe1
            {
              OFFSET 1.4015 3.97627 -1.33795
              CHANNELS 6 Xposition Yposition Zposition Zrotation Xrotation Yrotation
              JOINT Bip01_R_Toe11
              {
                OFFSET 2.94553 0 0
                CHANNELS 6 Xposition Yposition Zposition Zrotation Xrotation Yrotation
                JOINT Bip01_R_Toe1Nub
                {
                  OFFSET 2.52656 0 0
                  CHANNELS 6 Xposition Yposition Zposition Zrotation Xrotation Yrotation
                  End Site
                  {
                    OFFSET 0 0 0
                  }
                }
              }
            }
            JOINT Bip01_R_Toe0
            {
              OFFSET 2.09729 6.93129 0.0277901
              CHANNELS 6 Xposition Yposition Zposition Zrotation Xrotation Yrotation
              JOINT Bip01_R_Toe01
              {
                OFFSET 3.0714 0 0
                CHANNELS 6 Xposition Yposition Zposition Zrotation Xrotation Yrotation
                JOINT Bip01_R_Toe0Nub
                {
                  OFFSET 3.37999 0 0
                  CHANNELS 6 Xposition Yposition Zposition Zrotation Xrotation Yrotation
                  End Site
                  {
                    OFFSET 0 0 0
                  }
                }
              }
            }
          }
        }
      }
      JOINT Bip01_L_Thigh
      {
        OFFSET -2.07803 -0.462101 2.48614
        CHANNELS 6 Xposition Yposition Zposition Zrotation Xrotation Yrotation
        JOINT Bip01_L_Calf
        {
          OFFSET 9.47902 0 0
          CHANNELS 6 Xposition Yposition Zposition Zrotation Xrotation Yrotation
          JOINT Bip01_L_Foot
          {
            OFFSET 8.42617 0 0
            CHANNELS 6 Xposition Yposition Zposition Zrotation Xrotation Yrotation
            JOINT Bip01_L_Toe1
            {
              OFFSET 1.40151 3.97627 1.33796
              CHANNELS 6 Xposition Yposition Zposition Zrotation Xrotation Yrotation
              JOINT Bip01_L_Toe11
              {
                OFFSET 2.94554 0 0
                CHANNELS 6 Xposition Yposition Zposition Zrotation Xrotation Yrotation
                JOINT Bip01_L_Toe1Nub
                {
                  OFFSET 2.52656 0 0
                  CHANNELS 6 Xposition Yposition Zposition Zrotation Xrotation Yrotation
                  End Site
                  {
                    OFFSET 0 0 0
                  }
                }
              }
            }
            JOINT Bip01_L_Toe0
            {
              OFFSET 2.0973 6.93128 -0.0277834
              CHANNELS 6 Xposition Yposition Zposition Zrotation Xrotation Yrotation
              JOINT Bip01_L_Toe01
              {
                OFFSET 3.07141 0 0
                CHANNELS 6 Xposition Yposition Zposition Zrotation Xrotation Yrotation
                JOINT Bip01_L_Toe0Nub
                {
                  OFFSET 3.37999 0 0
                  CHANNELS 6 Xposition Yposition Zposition Zrotation Xrotation Yrotation
                  End Site
                  {
                    OFFSET 0 0 0
                  }
                }
              }
            }
          }
        }
      }
      JOINT Bip01_Spine1
      {
        OFFSET 6.17162 -0.00484467 0
        CHANNELS 6 Xposition Yposition Zposition Zrotation Xrotation Yrotation
        JOINT BN_R_Clavicle_01
        {
          OFFSET 6.15897 -2.02444 -2.78435
          CHANNELS 6 Xposition Yposition Zposition Zrotation Xrotation Yrotation
          JOINT BN_R_UpperArm_01
          {
            OFFSET 3.43915 0 0
            CHANNELS 6 Xposition Yposition Zposition Zrotation Xrotation Yrotation
            JOINT BN_R__Forearm_01
            {
              OFFSET 10.2529 0 0
              CHANNELS 6 Xposition Yposition Zposition Zrotation Xrotation Yrotation
              JOINT BN_R_Hand_01
              {
                OFFSET 16.2051 0 0
                CHANNELS 6 Xposition Yposition Zposition Zrotation Xrotation Yrotation
                JOINT BN_R_Finger_07
                {
                  OFFSET 2.2539 2.19923 0.192043
                  CHANNELS 6 Xposition Yposition Zposition Zrotation Xrotation Yrotation
                  End Site
                  {
                    OFFSET 0 0 0
                  }
                }
                JOINT BN_R_Finger_01
                {
                  OFFSET 2.17806 -1.99631 -0.219296
                  CHANNELS 6 Xposition Yposition Zposition Zrotation Xrotation Yrotation
                  End Site
                  {
                    OFFSET 0 0 0
                  }
                }
                JOINT BN_R_Finger_05
                {
                  OFFSET 3.30715 1.42802 0.17391
                  CHANNELS 6 Xposition Yposition Zposition Zrotation Xrotation Yrotation
                  End Site
                  {
                    OFFSET 0 0 0
                  }
                }
                JOINT BN_R_Finger_03
                {
                  OFFSET 3.93641 -0.769831 0.580946
                  CHANNELS 6 Xposition Yposition Zposition Zrotation Xrotation Yrotation
                  End Site
                  {
                    OFFSET 0 0 0
                  }
                }
              }
            }
          }
        }
        JOINT BN_L_Clavicle_01
        {
          OFFSET 6.15897 -2.02445 2.78458
          CHANNELS 6 Xposition Yposition Zposition Zrotation Xrotation Yrotation
          JOINT BN_L_UpperArm_01
          {
            OFFSET 3.43915 0 0
            CHANNELS 6 Xposition Yposition Zposition Zrotation Xrotation Yrotation
            JOINT BN_L__Forearm_01
            {
              OFFSET 10.2529 0 0
              CHANNELS 6 Xposition Yposition Zposition Zrotation Xrotation Yrotation
              JOINT BN_L_Hand_01
              {
                OFFSET 16.2051 0 0
                CHANNELS 6 Xposition Yposition Zposition Zrotation Xrotation Yrotation
                JOINT BN_L_Finger_05
                {
                  OFFSET 3.30715 -1.42803 0.173891
                  CHANNELS 6 Xposition Yposition Zposition Zrotation Xrotation Yrotation
                  End Site
                  {
                    OFFSET 0 0 0
                  }
                }
                JOINT BN_L_Finger_07
                {
                  OFFSET 2.2539 -2.19925 0.19203
                  CHANNELS 6 Xposition Yposition Zposition Zrotation Xrotation Yrotation
                  End Site
                  {
                    OFFSET 0 0 0
                  }
                }
                JOINT BN_L_Finger_01
                {
                  OFFSET 2.17804 1.99629 -0.219303
                  CHANNELS 6 Xposition Yposition Zposition Zrotation Xrotation Yrotation
                  End Site
                  {
                    OFFSET 0 0 0
                  }
                }
                JOINT BN_L_Finger_03
                {
                  OFFSET 3.9364 0.769825 0.580943
                  CHANNELS 6 Xposition Yposition Zposition Zrotation Xrotation Yrotation
                  End Site
                  {
                    OFFSET 0 0 0
                  }
                }
              }
            }
          }
        }
        JOINT Bip01_Neck
        {
          OFFSET 7.02381 -0.81237 0
          CHANNELS 6 Xposition Yposition Zposition Zrotation Xrotation Yrotation
          JOINT Bip01_Head
          {
            OFFSET 1.54249 1.14441e-005 0
            CHANNELS 6 Xposition Yposition Zposition Zrotation Xrotation Yrotation
            JOINT BN_Mouth_01
            {
              OFFSET 2.32836 0.166542 0
              CHANNELS 6 Xposition Yposition Zposition Zrotation Xrotation Yrotation
              End Site
              {
                OFFSET 0 0 0
              }
            }
            JOINT BN_R_Ear_01
            {
              OFFSET 3.4208 -0.773972 -2.25959
              CHANNELS 6 Xposition Yposition Zposition Zrotation Xrotation Yrotation
              End Site
              {
                OFFSET 0 0 0
              }
            }
            JOINT BN_L_Ear_01
            {
              OFFSET 3.4208 -0.773976 2.25975
              CHANNELS 6 Xposition Yposition Zposition Zrotation Xrotation Yrotation
              End Site
              {
                OFFSET 0 0 0
              }
            }
            JOINT Bip01_HeadNub
            {
              OFFSET 6.74789 0 0
              CHANNELS 6 Xposition Yposition Zposition Zrotation Xrotation Yrotation
              End Site
              {
                OFFSET 0 0 0
              }
            }
          }
        }
      }
    }
  }
}
MOTION
Frames:	4
Frame Time:	0.0333333
3.43693 46.1799 0.094427 53.6268 -89.1131 102.247 0 0 0 -89.9965 -3.50835e-015 -90 -2.28979 -2.39919 5.55112e-017 177.324 83.8743 55.6489 9.67406 -2.38419e-007 7.6294e-006 11.4863 0.995905 -10.5293 10.5192 5.96046e-008 7.10543e-015 16.5777 -0.474267 -11.3118 8.16754 -2.86102e-006 -1.14441e-005 19.9373 1.87746 11.356 2.25378 -0.004879 0 -4.69746 4.85993 -3.04149 -2.36821 -0.380261 -2.22721 21.2898 -16.5078 -169.883 9.47902 0 9.53675e-007 -35.4872 -1.5124e-006 8.58179e-007 8.42617 0 0 -27.114 -8.17565 -12.5263 1.4015 3.97628 -1.33794 85.5365 -41.2629 29.201 2.94554 -3.55272e-015 0 -18.3475 -6.45086e-006 1.02998e-005 2.52656 3.8147e-006 7.10543e-015 6.89117e-007 4.9015e-006 -7.05721e-007 2.09729 6.9313 0.0278103 65.2585 -7.80096e-006 1.59357e-005 3.07141 3.8147e-006 -2.38419e-007 -65.3707 9.08698e-009 8.08196e-007 3.37999 1.90735e-006 2.38419e-007 -6.89702e-007 -2.00488e-007 -1.33564e-007 -2.11701 0.0220184 2.49703 27.6338 8.92069 -164.594 9.47902 7.10543e-015 0 -40.8908 -1.20078e-005 -1.06907e-005 8.42617 0 -0.000957489 -39.4291 2.3715 4.7632 1.40165 3.97637 1.33752 71.6153 45.8602 -19.575 2.94554 -7.10543e-015 -3.8147e-006 -20.4088 -0.00123712 0.00688466 2.52656 3.8147e-006 1.90735e-006 -179.961 2.01956e-005 0.00419744 2.09735 6.93127 -0.028512 54.3342 7.81367e-006 6.07288e-006 3.07141 7.62939e-006 9.53675e-007 -76.425 -0.000995152 0.0125687 3.38 1.90735e-006 0.000725746 -179.963 0.00595393 0.0123077 6.1717 -0.00487137 -0.00014472 -8.01026 1.68411 -7.18673 6.15899 -2.02445 -2.78435 -178.019 9.66756 77.6449 3.43915 0 0 78.7843 65.3126 -62.1786 10.2529 7.62939e-006 0 -63.5645 1.35792 0.849612 16.2051 -1.90735e-006 -0.00157929 28.3297 0.208288 17.6917 2.25397 2.19919 0.191941 68.5862 0.534744 12.2924 2.17801 -1.99634 -0.219591 -71.0444 -0.185763 7.62052 3.3072 1.42796 0.173676 22.0307 1.23574 14.5549 3.93644 -0.769921 0.58055 -1.22358 0.408986 39.3861 6.15898 -2.02445 2.78458 1.29162 6.64551 -102.246 3.43915 3.55271e-015 3.8147e-006 -93.1716 -78.3153 -75.5175 10.2529 0 -1.90735e-006 67.8409 -5.28637 6.96414 16.2051 7.10543e-015 1.90735e-006 -25.4503 -4.51988 22.7683 3.30714 -1.42803 0.173889 -22.0449 -1.13374 0.552346 2.25391 -2.19924 0.19203 -68.6228 -0.533589 8.29406 2.17804 1.99631 -0.219302 71.0447 0.182698 6.61525 3.9364 0.76983 0.580936 0.555006 -2.50247 19.3748 7.02382 -0.812382 8.88179e-016 10.998 -8.90937e-007 1.05486e-005 1.54248 3.8147e-006 4.76837e-007 -15.3807 -7.64955 7.65986 2.10595 -0.356756 0.0332334 -69.5195 -0.0116272 -179.983 3.42081 -0.77397 -2.25959 154.422 1.41883 177.05 3.42081 -0.773977 2.25975 -25.7806 1.4477 -12.7099 6.7479 7.10543e-015 -5.96047e-008 2.32843e-007 -3.88074e-008 2.48377e-008 
-3.33216 49.0997 -1.62777 -92.4877 -89.0308 -51.2031 0 0 0 -89.9965 -3.50835e-015 -90 -2.28979 -2.39919 2.22045e-016 151.882 83.482 69.1738 9.67406 -2.38419e-007 7.6294e-006 7.54806 -0.905415 -17.1948 10.5192 5.96046e-008 7.10543e-015 18.4986 3.81382 -0.795391 8.16754 -2.86102e-006 -1.14441e-005 20.5237 -0.0542195 19.7367 2.25378 -0.004879 2.22045e-016 15.5416 3.07096 -0.775763 -2.20179 0.480032 -2.37289 -35.3348 -17.5943 174.35 9.47902 3.55271e-015 9.53675e-007 -60.8223 -1.02123e-006 -1.09774e-007 8.42616 1.42109e-014 3.55271e-015 -12.4806 -14.6228 -7.47745 1.4015 3.97628 -1.33794 85.41 -41.3165 29.1174 2.94554 1.13687e-013 -3.55272e-015 -18.381 0.0194025 -0.0584039 2.52656 3.8147e-006 -9.23706e-014 6.89117e-007 4.9015e-006 -7.05721e-007 2.09729 6.9313 0.0278104 65.1485 -7.35107e-006 1.55706e-005 3.07141 3.8147e-006 -2.38419e-007 -65.3159 -5.09194e-007 5.21177e-007 3.37999 1.90735e-006 2.38419e-007 -6.89702e-007 -2.00488e-007 -1.33564e-007 -2.13759 0.734444 2.36779 -22.1542 5.4762 -170.175 9.47902 0 -5.32907e-015 -76.9488 -1.30462e-005 -1.39407e-005 8.42617 1.65201e-011 -0.000957489 -25.3436 0.396221 4.86613 1.40165 3.97637 1.33752 71.695 45.8405 -19.6322 2.94554 -2.13163e-014 -3.8147e-006 -20.3263 0.00158751 -0.000711544 2.52656 3.8147e-006 1.90735e-006 -179.961 2.01955e-005 0.00419744 2.09735 6.93127 -0.028512 50.6867 1.61306e-007 7.73085e-007 3.07141 7.62939e-006 9.53675e-007 -76.4322 0.00351798 0.0114789 3.38 1.90733e-006 0.000725746 -179.963 0.00595393 0.0123077 6.1717 -0.00487137 -0.00014472 -1.27055 -0.00673409 -4.60049 6.15899 -2.02445 -2.78435 -177.736 10.7914 77.4327 3.43915 -7.10543e-015 2.13163e-014 80.9363 53.7187 -104.413 10.2529 7.62939e-006 3.48166e-013 -60.7084 1.19837 3.0031 16.2051 -1.90758e-006 -0.00157929 31.0865 -4.69939 29.2095 2.25397 2.19919 0.191941 68.4617 0.480704 26.6737 2.17801 -1.99634 -0.219592 -70.9249 -0.164923 3.63349 3.3072 1.42796 0.173676 19.4437 1.78911 25.2862 3.93644 -0.769921 0.58055 -1.15617 0.451413 30.6026 6.15898 -2.02445 2.78458 0.426642 2.64252 -102.258 3.43915 7.10543e-015 3.8147e-006 -44.3749 -56.3378 -62.2958 10.2529 2.13163e-014 -1.90735e-006 55.8052 -4.99187 10.9995 16.2051 6.03962e-013 1.90735e-006 -28.4859 2.82077 26.2074 3.30714 -1.42803 0.173888 -20.2773 -1.49123 21.5741 2.25391 -2.19924 0.19203 -68.4521 -0.477818 27.5735 2.17804 1.99631 -0.219301 71.0603 0.185196 1.33953 3.9364 0.76983 0.580936 0.472717 -2.3282 24.6041 7.02382 -0.812382 -5.82565e-009 10.998 -7.96343e-007 1.04702e-005 1.54248 3.8147e-006 4.76837e-007 -24.4874 -4.93748 2.69681 2.10595 -0.356756 0.0332334 -80.8396 0.00640831 179.382 3.42081 -0.77397 -2.25959 150.788 2.32756 174.983 3.42081 -0.773977 2.25975 -28.3553 2.54988 -10.9909 6.7479 0 -5.96047e-008 2.32843e-007 -3.88074e-008 2.48377e-008 
-9.96982 51.9628 -3.31652 -98.265 -87.2962 -64.1753 0 0 0 -89.9965 -3.50835e-015 -90 -2.28979 -2.39919 -2.84217e-014 133.192 83.5505 78.1833 9.67406 -2.38419e-007 7.6294e-006 3.98195 -2.4706 -22.26 10.5192 5.96046e-008 0 17.8875 7.333 6.50872 8.16754 -2.86102e-006 -1.14441e-005 19.5861 -0.991926 24.3377 2.25378 -0.004879 8.88178e-016 35.4186 2.17386 1.90925 -1.75328 1.21958 -2.48152 -89.0227 -8.819 164.304 9.47902 8.88179e-016 9.53675e-007 -85.6703 -1.02664e-005 1.20773e-006 8.42616 1.42109e-014 3.55271e-015 2.60598 -18.4442 -0.60101 1.4015 3.97628 -1.33794 85.1624 -41.421 28.9537 2.94554 2.24709e-013 -3.55272e-015 -18.1881 -4.26716e-006 -4.38203e-007 2.52656 3.8147e-006 -1.56319e-013 6.89117e-007 4.9015e-006 -7.05721e-007 2.09729 6.9313 0.0278104 64.9349 -7.0318e-006 1.54552e-005 3.07141 3.8147e-006 -2.38419e-007 -65.2378 -1.12153e-006 3.90321e-007 3.37999 1.90735e-006 2.38419e-007 -6.89702e-007 -2.00488e-007 -1.33564e-007 -1.91148 1.39984 2.26041 -71.4507 7.05062 -174.106 9.47902 -3.55271e-015 -5.32907e-015 -112.313 6.9106e-006 -1.55119e-005 8.42617 4.52758e-011 -0.000957489 -11.4255 -2.05305 3.1591 1.40165 3.97637 1.33752 71.7731 45.821 -19.6882 2.94554 -3.55271e-014 -3.8147e-006 -20.2453 0.0043378 -0.00817276 2.52656 3.8147e-006 1.90735e-006 -179.961 2.01956e-005 0.00419744 2.09735 6.93127 -0.028512 43.5111 2.29778e-007 9.88593e-007 3.07141 7.62939e-006 9.53675e-007 -76.2649 0.0166089 0.00827683 3.38 1.90731e-006 0.000725746 -179.963 0.00595393 0.0123077 6.1717 -0.00487137 -0.00014472 5.40833 -1.36034 -1.88957 6.15899 -2.02445 -2.78435 -177.493 11.7833 77.3115 3.43915 0 1.06581e-014 64.3976 47.6785 -114.408 10.2529 7.62939e-006 4.0501e-013 -55.8664 0.107867 2.55906 16.2051 -1.90739e-006 -0.00157929 32.1015 -6.39536 29.8223 2.25397 2.19919 0.191941 68.4639 0.428481 31.2942 2.17801 -1.99634 -0.219592 -70.8907 -0.159708 -0.276391 3.3072 1.42796 0.173676 19.4066 1.71508 26.9145 3.93644 -0.769921 0.58055 -1.02232 0.482028 19.3524 6.15898 -2.02445 2.78458 -0.19745 -0.250813 -101.41 3.43915 -1.42109e-014 3.8147e-006 -13.9039 -46.3744 -58.1302 10.2529 2.13163e-014 -1.90735e-006 45.5282 -2.9565 10.5645 16.2051 2.75336e-013 1.90735e-006 -29.4313 6.52082 23.5298 3.30714 -1.42803 0.173888 -20.1552 -1.41248 29.6597 2.25391 -2.19924 0.19203 -68.3872 -0.440465 35.4952 2.17805 1.99631 -0.219301 71.0767 0.181362 -3.22428 3.9364 0.76983 0.580936 0.492585 -2.39135 21.4695 7.02382 -0.812382 -2.16902e-009 10.998 -6.98341e-007 1.05194e-005 1.54248 3.8147e-006 4.76837e-007 -33.1816 -2.54749 -2.15705 2.10595 -0.356756 0.0332334 -90.7088 0.010084 178.848 3.42081 -0.77397 -2.25959 148.576 3.76027 174.967 3.42081 -0.773978 2.25975 -30.023 2.04481 -10.903 6.7479 7.10543e-015 -5.96047e-008 2.32843e-007 -3.88074e-008 2.48377e-008 
-15.0815 54.4379 -4.51462 -98.8698 -86.6181 -72.2329 0 0 0 -89.9965 -3.50835e-015 -90 -2.28979 -2.39919 -5.24025e-014 118.004 84.2573 85.6633 9.67406 -2.38419e-007 7.6294e-006 0.863686 -3.79062 -25.8539 10.5192 5.96046e-008 -2.84217e-014 15.5767 10.1435 10.8248 8.16754 -2.86102e-006 -1.14441e-005 16.7023 -1.10978 25.2623 2.25378 -0.004879 -8.88178e-016 47.1682 2.16983 3.64889 -1.37221 1.56608 -2.52719 -119.473 -1.73439 163.028 9.47902 1.06581e-014 9.53675e-007 -100.886 -2.5782e-007 3.69171e-007 8.42616 2.13163e-014 0 10.6612 -18.1643 3.04634 1.4015 3.97628 -1.33794 85.038 -41.4732 28.8713 2.94554 2.64677e-013 1.77636e-015 -18.1137 -3.94925e-006 5.50484e-007 2.52656 3.8147e-006 -1.81188e-013 6.89117e-007 4.9015e-006 -7.05721e-007 2.09729 6.9313 0.0278104 64.8417 1.93526e-006 1.99363e-005 3.07141 3.8147e-006 -2.38419e-007 -65.159 -9.59031e-006 4.39249e-006 3.37999 1.90735e-006 2.38419e-007 -6.89702e-007 -2.00488e-007 -1.33564e-007 -1.67419 1.74591 2.20777 -99.325 8.81202 -174.921 9.47902 0 -3.55271e-015 -128.338 1.07794e-005 -1.29018e-005 8.42617 6.19949e-011 -0.000957489 -3.89911 -2.39048 1.44464 1.40165 3.97637 1.33752 71.822 45.8088 -19.7233 2.94554 -5.68434e-014 -3.8147e-006 -20.1636 0.0071044 -0.0157444 2.52656 3.8147e-006 1.90735e-006 -179.961 2.01956e-005 0.00419744 2.09735 6.93127 -0.0285121 39.9033 -1.58976e-007 4.94676e-007 3.07141 7.6294e-006 9.53675e-007 -76.2071 0.0154765 0.00853998 3.38 1.9073e-006 0.000725746 -179.963 0.00595393 0.0123077 6.1717 -0.00487137 -0.00014472 12.6382 -2.1919 1.05218 6.15899 -2.02445 -2.78435 -177.283 12.683 77.2568 3.43915 -1.42109e-014 -2.22045e-016 51.1529 54.7435 -119.125 10.2529 7.62939e-006 4.0501e-013 -49.0613 -1.93912 -0.48519 16.2051 -1.9074e-006 -0.00157929 30.398 -5.42613 19.2862 2.25397 2.19919 0.191941 68.4612 0.484609 26.2951 2.17801 -1.99634 -0.219592 -70.9194 -0.179752 -3.22022 3.3072 1.42796 0.173676 21.8168 1.10187 19.553 3.93644 -0.769921 0.58055 -0.941695 0.519426 5.38161 6.15898 -2.02445 2.78458 -0.54911 -2.22393 -100.27 3.43915 1.42109e-014 3.8147e-006 9.1944 -46.8144 -48.7045 10.2529 2.13163e-014 -1.90735e-006 37.2368 0.963882 5.69709 16.2051 3.23297e-013 1.90735e-006 -27.5727 6.87612 14.3502 3.30714 -1.42803 0.173889 -21.8275 -1.06353 25.0156 2.25391 -2.19924 0.19203 -68.4213 -0.406414 32.2869 2.17805 1.99631 -0.219302 71.0786 0.139912 -7.25179 3.9364 0.76983 0.580936 0.577123 -2.62884 9.82699 7.02382 -0.812382 1.41265e-009 10.998 -8.05455e-007 1.05676e-005 1.54248 3.8147e-006 4.76837e-007 -38.0757 -0.893166 -4.20095 2.10595 -0.356756 0.0332334 -95.6508 0.0145221 178.614 3.42081 -0.77397 -2.25959 147.567 5.76697 177.008 3.42081 -0.773978 2.25975 -30.8767 -0.0720093 -12.4559 6.7479 -7.10543e-015 -5.96047e-008 2.32843e-007 -3.88074e-008 2.48377e-008 
